<svg width="321" height="185" viewBox="0 0 321 185" fill="none" xmlns="http://www.w3.org/2000/svg">
<path d="M15.36 174.48C12.032 174.48 9.216 173.904 6.912 172.752C4.64 171.568 2.688 169.904 1.056 167.76L6.048 162.144C7.616 164.288 9.2 165.728 10.8 166.464C12.4 167.2 14.048 167.568 15.744 167.568C16.608 167.568 17.376 167.456 18.048 167.232C18.752 167.008 19.296 166.688 19.68 166.272C20.096 165.824 20.304 165.296 20.304 164.688C20.304 164.208 20.176 163.776 19.92 163.392C19.696 163.008 19.376 162.672 18.96 162.384C18.544 162.096 18.064 161.84 17.52 161.616C16.976 161.36 16.368 161.152 15.696 160.992C15.056 160.832 14.4 160.688 13.728 160.56C11.872 160.176 10.256 159.68 8.88 159.072C7.536 158.432 6.4 157.68 5.472 156.816C4.576 155.92 3.904 154.912 3.456 153.792C3.008 152.64 2.784 151.344 2.784 149.904C2.784 147.856 3.36 146.064 4.512 144.528C5.696 142.992 7.248 141.792 9.168 140.928C11.088 140.064 13.168 139.632 15.408 139.632C18.672 139.632 21.296 140.16 23.28 141.216C25.296 142.24 26.896 143.664 28.08 145.488L22.992 150.432C22 149.152 20.864 148.192 19.584 147.552C18.336 146.912 17.024 146.592 15.648 146.592C14.72 146.592 13.904 146.704 13.2 146.928C12.496 147.152 11.952 147.488 11.568 147.936C11.216 148.352 11.04 148.864 11.04 149.472C11.04 149.984 11.184 150.448 11.472 150.864C11.792 151.248 12.224 151.584 12.768 151.872C13.312 152.16 13.936 152.416 14.64 152.64C15.344 152.832 16.08 152.992 16.848 153.12C18.608 153.472 20.192 153.936 21.6 154.512C23.04 155.088 24.272 155.808 25.296 156.672C26.32 157.504 27.104 158.496 27.648 159.648C28.224 160.768 28.512 162.064 28.512 163.536C28.512 165.84 27.952 167.808 26.832 169.44C25.712 171.072 24.16 172.32 22.176 173.184C20.192 174.048 17.92 174.48 15.36 174.48ZM33.8768 174V138.48H41.5088V153.696L39.9248 154.272C40.2768 153.12 40.9008 152.08 41.7968 151.152C42.7248 150.192 43.8288 149.424 45.1088 148.848C46.3888 148.272 47.7328 147.984 49.1408 147.984C51.0608 147.984 52.6768 148.384 53.9888 149.184C55.3008 149.952 56.2768 151.12 56.9167 152.688C57.5888 154.224 57.9248 156.128 57.9248 158.4V174H50.1968V158.976C50.1968 157.952 50.0528 157.104 49.7648 156.432C49.4768 155.76 49.0448 155.264 48.4688 154.944C47.8928 154.624 47.1728 154.48 46.3088 154.512C45.6368 154.512 45.0128 154.624 44.4368 154.848C43.8608 155.04 43.3488 155.344 42.9008 155.76C42.4848 156.144 42.1648 156.592 41.9408 157.104C41.7168 157.616 41.6048 158.192 41.6048 158.832V174H37.7168C36.8848 174 36.1328 174 35.4608 174C34.8208 174 34.2928 174 33.8768 174ZM76.3444 174.48C73.7204 174.48 71.3684 173.92 69.2884 172.8C67.2084 171.648 65.5764 170.08 64.3924 168.096C63.2084 166.08 62.6164 163.808 62.6164 161.28C62.6164 158.688 63.2084 156.4 64.3924 154.416C65.5764 152.4 67.2084 150.832 69.2884 149.712C71.3684 148.56 73.7204 147.984 76.3444 147.984C79.0004 147.984 81.3524 148.56 83.4004 149.712C85.4804 150.832 87.1124 152.4 88.2964 154.416C89.4804 156.4 90.0724 158.688 90.0724 161.28C90.0724 163.808 89.4804 166.08 88.2964 168.096C87.1124 170.08 85.4804 171.648 83.4004 172.8C81.3524 173.92 79.0004 174.48 76.3444 174.48ZM76.3444 167.856C77.4964 167.856 78.5044 167.568 79.3684 166.992C80.2644 166.416 80.9684 165.632 81.4804 164.64C81.9924 163.648 82.2324 162.528 82.2004 161.28C82.2324 159.968 81.9924 158.816 81.4804 157.824C80.9684 156.8 80.2644 156.016 79.3684 155.472C78.5044 154.896 77.4964 154.608 76.3444 154.608C75.2244 154.608 74.2164 154.896 73.3204 155.472C72.4244 156.048 71.7204 156.832 71.2084 157.824C70.6964 158.816 70.4404 159.968 70.4404 161.28C70.4404 162.528 70.6964 163.648 71.2084 164.64C71.7204 165.632 72.4244 166.416 73.3204 166.992C74.2164 167.568 75.2244 167.856 76.3444 167.856ZM95.0955 174V148.512H102.44L102.776 156.816L101.336 155.184C101.752 153.84 102.392 152.624 103.256 151.536C104.12 150.448 105.144 149.584 106.328 148.944C107.544 148.304 108.808 147.984 110.12 147.984C110.696 147.984 111.224 148.032 111.704 148.128C112.216 148.192 112.664 148.304 113.048 148.464L110.984 156.96C110.632 156.768 110.152 156.608 109.544 156.48C108.968 156.32 108.36 156.24 107.72 156.24C107.016 156.24 106.36 156.368 105.752 156.624C105.176 156.848 104.664 157.184 104.216 157.632C103.8 158.08 103.464 158.608 103.208 159.216C102.984 159.824 102.872 160.512 102.872 161.28V174H95.0955ZM120.036 174V142.08H127.764V174H120.036ZM115.524 155.28V148.512H132.66V155.28H115.524ZM149.005 174.48C146.189 174.48 143.725 173.92 141.613 172.8C139.533 171.68 137.917 170.144 136.765 168.192C135.645 166.208 135.085 163.952 135.085 161.424C135.085 159.44 135.405 157.632 136.045 156C136.685 154.336 137.581 152.912 138.733 151.728C139.917 150.544 141.293 149.632 142.861 148.992C144.461 148.32 146.205 147.984 148.093 147.984C149.885 147.984 151.517 148.304 152.989 148.944C154.461 149.584 155.741 150.48 156.829 151.632C157.917 152.784 158.749 154.144 159.325 155.712C159.901 157.28 160.173 158.992 160.141 160.848L160.093 162.96H139.837L138.685 158.592H153.805L152.989 159.456V158.496C152.925 157.696 152.669 157.008 152.221 156.432C151.805 155.824 151.245 155.344 150.541 154.992C149.869 154.64 149.101 154.464 148.237 154.464C146.957 154.464 145.869 154.72 144.973 155.232C144.109 155.712 143.453 156.416 143.005 157.344C142.557 158.272 142.333 159.424 142.333 160.8C142.333 162.176 142.621 163.392 143.197 164.448C143.805 165.504 144.669 166.32 145.789 166.896C146.941 167.472 148.301 167.76 149.869 167.76C150.925 167.76 151.885 167.6 152.749 167.28C153.613 166.96 154.541 166.416 155.533 165.648L159.133 170.736C158.141 171.568 157.085 172.272 155.965 172.848C154.845 173.392 153.693 173.792 152.509 174.048C151.357 174.336 150.189 174.48 149.005 174.48ZM165.033 174V148.512H172.377L172.713 156.816L171.273 155.184C171.689 153.84 172.329 152.624 173.193 151.536C174.057 150.448 175.081 149.584 176.265 148.944C177.481 148.304 178.745 147.984 180.057 147.984C180.633 147.984 181.161 148.032 181.641 148.128C182.153 148.192 182.601 148.304 182.985 148.464L180.921 156.96C180.569 156.768 180.089 156.608 179.481 156.48C178.905 156.32 178.297 156.24 177.657 156.24C176.953 156.24 176.297 156.368 175.689 156.624C175.113 156.848 174.601 157.184 174.153 157.632C173.737 158.08 173.401 158.608 173.145 159.216C172.921 159.824 172.809 160.512 172.809 161.28V174H165.033Z" fill="#1F1E1E"/>
<path d="M203.02 174V140.4H211.228V166.752H226.204V174H203.02ZM242.563 174.48C239.939 174.48 237.587 173.92 235.507 172.8C233.427 171.648 231.795 170.08 230.611 168.096C229.427 166.08 228.835 163.808 228.835 161.28C228.835 158.688 229.427 156.4 230.611 154.416C231.795 152.4 233.427 150.832 235.507 149.712C237.587 148.56 239.939 147.984 242.563 147.984C245.219 147.984 247.571 148.56 249.619 149.712C251.699 150.832 253.331 152.4 254.515 154.416C255.699 156.4 256.291 158.688 256.291 161.28C256.291 163.808 255.699 166.08 254.515 168.096C253.331 170.08 251.699 171.648 249.619 172.8C247.571 173.92 245.219 174.48 242.563 174.48ZM242.563 167.856C243.715 167.856 244.723 167.568 245.587 166.992C246.483 166.416 247.187 165.632 247.699 164.64C248.211 163.648 248.451 162.528 248.419 161.28C248.451 159.968 248.211 158.816 247.699 157.824C247.187 156.8 246.483 156.016 245.587 155.472C244.723 154.896 243.715 154.608 242.563 154.608C241.443 154.608 240.435 154.896 239.539 155.472C238.643 156.048 237.939 156.832 237.427 157.824C236.915 158.816 236.659 159.968 236.659 161.28C236.659 162.528 236.915 163.648 237.427 164.64C237.939 165.632 238.643 166.416 239.539 166.992C240.435 167.568 241.443 167.856 242.563 167.856ZM273.266 174.48C270.642 174.48 268.29 173.92 266.21 172.8C264.13 171.648 262.498 170.08 261.314 168.096C260.13 166.08 259.538 163.808 259.538 161.28C259.538 158.688 260.13 156.4 261.314 154.416C262.498 152.4 264.13 150.832 266.21 149.712C268.29 148.56 270.642 147.984 273.266 147.984C275.922 147.984 278.274 148.56 280.322 149.712C282.402 150.832 284.034 152.4 285.218 154.416C286.402 156.4 286.994 158.688 286.994 161.28C286.994 163.808 286.402 166.08 285.218 168.096C284.034 170.08 282.402 171.648 280.322 172.8C278.274 173.92 275.922 174.48 273.266 174.48ZM273.266 167.856C274.418 167.856 275.426 167.568 276.29 166.992C277.186 166.416 277.89 165.632 278.402 164.64C278.914 163.648 279.154 162.528 279.122 161.28C279.154 159.968 278.914 158.816 278.402 157.824C277.89 156.8 277.186 156.016 276.29 155.472C275.426 154.896 274.418 154.608 273.266 154.608C272.146 154.608 271.138 154.896 270.242 155.472C269.346 156.048 268.642 156.832 268.13 157.824C267.618 158.816 267.362 159.968 267.362 161.28C267.362 162.528 267.618 163.648 268.13 164.64C268.642 165.632 269.346 166.416 270.242 166.992C271.138 167.568 272.146 167.856 273.266 167.856ZM292.017 184.56V148.512H299.361L299.697 154.128L298.209 153.696C298.401 152.672 298.929 151.744 299.793 150.912C300.689 150.048 301.793 149.36 303.105 148.848C304.417 148.304 305.809 148.032 307.281 148.032C309.457 148.032 311.393 148.592 313.089 149.712C314.785 150.832 316.113 152.4 317.073 154.416C318.065 156.4 318.561 158.688 318.561 161.28C318.561 163.808 318.065 166.064 317.073 168.048C316.113 170.032 314.769 171.6 313.041 172.752C311.345 173.872 309.409 174.432 307.233 174.432C305.761 174.432 304.369 174.16 303.057 173.616C301.745 173.04 300.641 172.304 299.745 171.408C298.849 170.512 298.273 169.536 298.017 168.48L299.793 167.76V184.56H292.017ZM305.361 167.904C306.513 167.904 307.505 167.632 308.337 167.088C309.201 166.544 309.857 165.776 310.305 164.784C310.785 163.76 311.025 162.592 311.025 161.28C311.025 159.936 310.785 158.768 310.305 157.776C309.857 156.752 309.201 155.968 308.337 155.424C307.505 154.848 306.513 154.56 305.361 154.56C304.177 154.56 303.153 154.848 302.289 155.424C301.425 155.968 300.753 156.736 300.273 157.728C299.793 158.72 299.553 159.904 299.553 161.28C299.553 162.592 299.793 163.76 300.273 164.784C300.753 165.776 301.425 166.544 302.289 167.088C303.153 167.632 304.177 167.904 305.361 167.904Z" fill="#230F9F"/>
<path d="M104.867 61.8352C103.548 79.6495 115.323 94.9818 131.43 98.9448C135.621 99.9745 139.655 96.7277 139.655 92.3558V84.1258C128.29 84.1258 119.186 74.1085 120.481 62.3202C121.469 53.3431 128.596 46.1155 137.449 45.1133C149.072 43.7969 158.954 53.029 158.954 64.5584V70.3725C158.954 86.2208 171.26 99.5593 186.884 99.9326C202.977 100.314 216.192 87.1461 216.192 70.9099C216.192 54.9039 203.353 41.8835 187.57 41.8835V50.3579C187.57 54.087 189.794 57.3622 193.12 58.958C197.951 61.2727 201.163 66.5175 200.516 72.4182C199.851 78.4694 195.031 83.3614 189.064 84.0387C181.217 84.929 174.545 78.6964 174.545 70.9135V64.5552C174.545 44.1461 157.418 27.7212 136.977 29.275C119.92 30.5739 106.147 44.5372 104.867 61.8352Z" fill="url(#paint0_linear_552_391)"/>
<path d="M128.746 74.1449C123.518 68.0318 124.168 58.7784 130.196 53.4776C136.224 48.1763 145.348 48.8349 150.576 54.9481C155.803 61.0612 155.154 70.3146 149.126 75.6159C143.097 80.9167 133.973 80.2585 128.746 74.1449Z" fill="url(#paint1_linear_552_391)"/>
<path d="M187.718 79.9326C182.804 79.9326 178.821 75.893 178.821 70.9103C178.821 65.9272 182.804 61.8881 187.718 61.8881C192.632 61.8881 196.615 65.9272 196.615 70.9103C196.615 75.893 192.632 79.9326 187.718 79.9326Z" fill="url(#paint2_linear_552_391)"/>
<defs>
<linearGradient id="paint0_linear_552_391" x1="113.148" y1="43.1591" x2="208.331" y2="89.8182" gradientUnits="userSpaceOnUse">
<stop stop-color="#230F9F"/>
<stop offset="1" stop-color="#FF4081"/>
</linearGradient>
<linearGradient id="paint1_linear_552_391" x1="147.767" y1="76.0744" x2="130.431" y2="54.3681" gradientUnits="userSpaceOnUse">
<stop stop-color="#EF3071"/>
<stop offset="1" stop-color="#B4194E"/>
</linearGradient>
<linearGradient id="paint2_linear_552_391" x1="180.16" y1="65.4541" x2="220.135" y2="75.8043" gradientUnits="userSpaceOnUse">
<stop stop-color="#230F9F"/>
<stop offset="1" stop-color="#FF4081"/>
</linearGradient>
</defs>
</svg>
